# xmcd
#
# Track frame offsets: 
#        150
#        7815
#        24631
#        39719
#        55859
#        69039
#        78579
#        93229
#        102717
#        117212
#        132867
#        143767
#        156517
#        166317
#        176004
#        189917
#        201577
#        218829
#        234715
#        249749
#        268686
#        286138
#        294200
#        312538
#
# Disc length: 4331 seconds
#
# Revision: 0
# Processed by: cddbd v1.5.2PL0 Copyright (c) Steve Scherf et al.
# Submitted via: ExactAudioCopy v0.95b3
#
DISCID=5d10e918
DTITLE=Animals  - Animalistic  FLAC
DYEAR=1900
DGENRE=
TTITLE0=We're Gonna Howl Tonight
TTITLE1=Baby What's Wrong
TTITLE2=Rosie
TTITLE3=I Can't Believe It
TTITLE4=Drown In My Own Tears
TTITLE5=Ain't That A Shame
TTITLE6=Squeeze Her, Tease Her
TTITLE7=Misery
TTITLE8=One Monkey Won't Stop The Show
TTITLE9=Maudie
TTITLE10=She'll Return It
TTITLE11=The Same Thing
TTITLE12=If I Were A Carpenter
TTITLE13=It's All Meat
TTITLE14=San Franciscan Nights
TTITLE15=All Night Long
TTITLE16=Good Times
TTITLE17=I Get So Excited
TTITLE18=Anything
TTITLE19=Monterey
TTITLE20=It Hurt's Me Too
TTITLE21=Unknown Blues
TTITLE22=Gratefully Dead
TTITLE23=Track24 - Track24
EXTD=
EXTT0=
EXTT1=
EXTT2=
EXTT3=
EXTT4=
EXTT5=
EXTT6=
EXTT7=
EXTT8=
EXTT9=
EXTT10=
EXTT11=
EXTT12=
EXTT13=
EXTT14=
EXTT15=
EXTT16=
EXTT17=
EXTT18=
EXTT19=
EXTT20=
EXTT21=
EXTT22=
EXTT23=
PLAYORDER=
